<?xml version="1.0" encoding="UTF-8"?>
<svg version="1.1" xmlns="http://www.w3.org/2000/svg" width="500" height="500">
<path d="M0 0 C2.19465931 3.29198896 2.22539198 3.67692403 1.8125 7.375 C1.70679688 8.32761719 1.60109375 9.28023437 1.4921875 10.26171875 C0.40504308 18.51883949 -0.78045791 26.76149412 -2 35 C-0.90171875 33.61554688 -0.90171875 33.61554688 0.21875 32.203125 C2.41664425 29.56874753 4.59384199 27.61239703 7.5 25.75 C8.2321875 25.27046875 8.964375 24.7909375 9.71875 24.296875 C17.16100655 20.06600312 25.50676852 18.91620249 33.828125 21.0703125 C39.44736674 23.47567138 43.49993085 28.12567058 47 33 C47.54527344 32.46890625 48.09054688 31.9378125 48.65234375 31.390625 C56.49565885 24.04338282 64.00365285 19.74299022 75 20 C77.33640176 20.65583207 79.66989091 21.32215008 82 22 C85.04147263 21.8924238 88.00048219 21.50332045 91 21 C91.12375 19.906875 91.2475 18.81375 91.375 17.6875 C92 14 92 14 94 11 C97.14930893 9.95023036 99.38814456 9.89868405 102.6875 9.9375 C103.68136719 9.94652344 104.67523438 9.95554688 105.69921875 9.96484375 C106.83810547 9.98224609 106.83810547 9.98224609 108 10 C109.30660357 14.29727397 108.6596762 17.60215865 108 22 C111.63 22 115.26 22 119 22 C119.33 23.98 119.66 25.96 120 28 C120.54527344 27.59007812 121.09054688 27.18015625 121.65234375 26.7578125 C129.45588781 21.18194683 136.06893352 19.22515949 145.63671875 20.4453125 C149.28187381 21.30086956 151.87294392 22.95784093 155 25 C158.94682202 26.31560734 160.15532307 25.27392243 163.875 23.5625 C167.81202874 21.75186147 170.64447799 20.67052324 175 21 C176.98 24.465 176.98 24.465 179 28 C179.94875 27.195625 180.8975 26.39125 181.875 25.5625 C185.6153903 22.39129953 187.97626175 21.72891827 193.0234375 21.765625 C195.67840657 22.08044347 197.13201674 23.13201674 199 25 C199.5775 24.71125 200.155 24.4225 200.75 24.125 C201.86375 23.568125 201.86375 23.568125 203 23 C203.59941406 22.66226563 204.19882812 22.32453125 204.81640625 21.9765625 C211.69641634 18.89963491 220.0216735 19.58981495 227 22 C231.66666667 24.33333333 231.66666667 24.33333333 233 27 C233.04597565 31.6803215 232.57574789 35.14510162 229.9375 39.0625 C229.298125 39.701875 228.65875 40.34125 228 41 C225 40 225 40 223.3125 37.0625 C222 34 222 34 222 32 C221.34 32 220.68 32 220 32 C220 32.66 220 33.32 220 34 C218.68 34 217.36 34 216 34 C216 33.01 216 32.02 216 31 C215.34 31 214.68 31 214 31 C214.01770715 33.33640762 214.01770715 33.33640762 215 36 C217.08104729 37.80531578 219.05072863 39.33768309 221.3125 40.875 C226.94587268 44.70544388 231.06963739 48.42144383 232.49609375 55.44140625 C232.3428279 60.98962995 231.75717706 65.37411709 227.5234375 69.40625 C220.5229423 74.90435582 213.51186268 75.46033055 204.91015625 74.546875 C199.49891323 73.52999712 194.53718796 71.33726619 191 67 C190.4506333 62.13418066 190.26509627 60.1023556 193 56 C193.99 55.01 193.99 55.01 195 54 C197.125 54 197.125 54 200 55 C201.421875 56.8125 201.421875 56.8125 202.875 59 C205.19919626 62.37189095 205.57890207 62.88770722 209.75 64 C210.8225 64 211.895 64 213 64 C213.66 64 214.32 64 215 64 C214.81870185 60.56206661 214.81870185 60.56206661 214 57 C212.17554424 55.88934522 212.17554424 55.88934522 210 55 C206.3122732 52.479093 202.82544377 49.87130176 199.75 46.625 C197.90949128 44.54636593 197.90949128 44.54636593 194 45 C194 44.34 194 43.68 194 43 C192.02 43 190.04 43 188 43 C187.67 42.01 187.34 41.02 187 40 C184.69 39.67 182.38 39.34 180 39 C179.87882813 40.14855469 179.75765625 41.29710937 179.6328125 42.48046875 C176.86939825 68.2612035 176.86939825 68.2612035 175 72 C171.11193281 73.9440336 167.33186017 74.76793606 163 75 C160.30078125 73.8984375 160.30078125 73.8984375 158 72 C157.51171875 69.08203125 157.51171875 69.08203125 157.6875 65.8125 C157.73261719 64.72582031 157.77773438 63.63914062 157.82421875 62.51953125 C157.88222656 61.68808594 157.94023437 60.85664063 158 60 C157.55269531 60.53109375 157.10539063 61.0621875 156.64453125 61.609375 C145.71900533 74.37523471 145.71900533 74.37523471 137.67578125 75.25390625 C131.00427272 75.40715683 124.84275188 74.7540384 119.0625 71.1875 C114.50230289 69.41926031 111.32521985 71.09690327 107 73 C106.01 73.495 106.01 73.495 105 74 C93.24060755 75.05533009 93.24060755 75.05533009 88.77734375 72.953125 C86.69333669 71.21218544 85.2149245 69.42984899 84 67 C83.608125 67.45375 83.21625 67.9075 82.8125 68.375 C80.64133759 70.3215594 78.7403316 71.00351578 76 72 C74.96875 72.53625 73.9375 73.0725 72.875 73.625 C65.89906432 76.5973552 57.87800511 75.61507081 50.94140625 72.984375 C46.60427572 70.78526656 43.81544939 67.45610304 42 63 C41.34 63 40.68 63 40 63 C39.505 64.485 39.505 64.485 39 66 C36.52735153 68.26610265 33.76845871 70.11311753 31 72 C30.0925 72.61875 29.185 73.2375 28.25 73.875 C20.24131824 76.647236 11.60715602 75.52093421 4 72 C3.01 71.34 2.02 70.68 1 70 C0.67 70.66 0.34 71.32 0 72 C-1.010625 71.9175 -2.02125 71.835 -3.0625 71.75 C-6.8372909 71.98966926 -7.6841281 72.19889049 -10.625 74.125 C-14 76 -14 76 -16.75 75.5 C-19.16500899 73.889994 -20.52166935 72.48982003 -22 70 C-22 69.34 -22 68.68 -22 68 C-22.66 68 -23.32 68 -24 68 C-24 68.99 -24 69.98 -24 71 C-25.051875 71.28875 -26.10375 71.5775 -27.1875 71.875 C-30.82620808 72.81998646 -30.82620808 72.81998646 -33.3125 74.1875 C-37.65647766 75.50079557 -41.63762315 75.17553146 -46 74 C-50.21142621 71.49319868 -53.105155 68.53901506 -55 64 C-57.74965372 52.60224183 -53.6944608 42.78823983 -48 33 C-43.68202772 26.41576276 -38.24753223 22.2313106 -30.5625 20.5625 C-25.48568791 19.79817332 -21.83350924 20.35843082 -17 22 C-17.07088602 18.92612437 -17.24887919 15.98850194 -18 13 C-20.39056942 11.0645852 -20.39056942 11.0645852 -23 10 C-23.495 8.515 -23.495 8.515 -24 7 C-19.83614569 1.74992283 -14.00193866 0.69275508 -7.75 -0.75 C-4.85079477 -1.01356411 -2.76287956 -0.92095985 0 0 Z M69 30 C69 30.99 69 31.98 69 33 C68.236875 33.020625 67.47375 33.04125 66.6875 33.0625 C63.62010351 33.78755759 63.62010351 33.78755759 62.25 37.375 C59.82051977 44.42049266 59.25968484 50.53588128 60 58 C61.63304302 61.63779591 61.63304302 61.63779591 65 63 C69.65024922 63.42045653 72.96771928 62.79221543 76.6875 59.9375 C77.450625 59.298125 78.21375 58.65875 79 58 C82.14453125 57.87890625 82.14453125 57.87890625 85 58 C85.38955051 55.73161744 85.76119129 53.46015313 86.125 51.1875 C86.33382812 49.92292969 86.54265625 48.65835938 86.7578125 47.35546875 C87.35428059 43.86716423 87.35428059 43.86716423 85 41 C84.67 41.33 84.34 41.66 84 42 C77.85365854 42.45528455 77.85365854 42.45528455 75.125 41 C73.32756466 37.8045594 73.29797286 34.63526893 73 31 C71.68 30.67 70.36 30.34 69 30 Z M138 30 C138 30.66 138 31.32 138 32 C137.2575 32 136.515 32 135.75 32 C132.50098087 33.1814615 132.25562094 33.82893498 130.75 36.8125 C128.47425203 41.78370356 127.8441756 45.95762157 127.8125 51.4375 C127.79832031 52.54996094 127.78414062 53.66242188 127.76953125 54.80859375 C128.08105796 59.12244662 128.92719628 61.92719628 132 65 C135.41701449 64.91007857 136.72234097 64.26972592 139.1875 61.875 C143.58072153 54.90644171 144.98267046 45.33993793 143.49609375 37.26171875 C142.50966927 34.01522741 142.50966927 34.01522741 141 31 C140.01 30.67 139.02 30.34 138 30 Z M-23 31 C-23 31.99 -23 32.98 -23 34 C-24.32 33.34 -25.64 32.68 -27 32 C-28.56249809 33.31201173 -28.56249809 33.31201173 -30 35 C-30 35.99 -30 36.98 -30 38 C-30.66 38 -31.32 38 -32 38 C-32 38.66 -32 39.32 -32 40 C-32.66 40 -33.32 40 -34 40 C-37.05279832 46.61439637 -37.8619894 52.72346608 -37 60 C-35.14649305 62.30301986 -35.14649305 62.30301986 -32.25 62.125 C-26.86601632 60.26131334 -24.49388446 55.95302742 -21.9921875 51.0078125 C-19.61802116 45.26832299 -18.08983353 38.97321048 -19.9375 32.9375 C-20.288125 32.298125 -20.63875 31.65875 -21 31 C-21.66 31 -22.32 31 -23 31 Z M18 33 C18 33.66 18 34.32 18 35 C17.34 35 16.68 35 16 35 C13.13276645 40.61499904 12.69802261 45.54757906 12.6875 51.75 C12.68234375 52.49499756 12.6771875 53.23999512 12.671875 54.00756836 C12.73191402 59.32825288 12.73191402 59.32825288 15 64 C17.29558468 65.25941717 17.29558468 65.25941717 20 65 C24.55521386 61.63781834 26.96109769 57.50293567 28 52 C28.17630426 49.25075547 28.29352121 46.56193567 28.3125 43.8125 C28.31805908 43.12309326 28.32361816 42.43368652 28.3293457 41.72338867 C28.27267921 37.72331563 27.75525865 34.60142711 26 31 C23.11604263 31 20.70522185 32.05905327 18 33 Z M106 33 C105.27700748 35.6866759 104.74126437 38.20280558 104.3125 40.9375 C104.18584961 41.69933594 104.05919922 42.46117187 103.92871094 43.24609375 C103.00639955 49.13297615 102.36546591 55.04514157 103 61 C104.12534105 62.35618499 104.12534105 62.35618499 107.0625 62.0625 C108.5165625 62.0315625 108.5165625 62.0315625 110 62 C109.94199219 60.81664062 109.88398438 59.63328125 109.82421875 58.4140625 C109.50798616 49.12841309 109.48414138 41.90606402 115 34 C115.66 33.01 116.32 32.02 117 31 C115.1128125 30.938125 115.1128125 30.938125 113.1875 30.875 C112.47980469 30.85179687 111.77210938 30.82859375 111.04296875 30.8046875 C108.68640281 30.86745538 108.68640281 30.86745538 106 33 Z M184 36 C184.66 36.66 185.32 37.32 186 38 C186 37.34 186 36.68 186 36 C185.34 36 184.68 36 184 36 Z M159 56 C160 58 160 58 160 58 Z " fill="#0359DC" transform="translate(122,156)"/>
<path d="M0 0 C2.61314307 0.8066123 2.61314307 0.8066123 5.36328125 1.22265625 C7.61328125 1.75390625 7.61328125 1.75390625 8.92578125 3.81640625 C9.26609375 4.77546875 9.26609375 4.77546875 9.61328125 5.75390625 C10.50015625 5.17640625 11.38703125 4.59890625 12.30078125 4.00390625 C18.66939778 0.35725466 27.18441932 -3.02807922 34.61328125 -2.24609375 C37.1263312 0.2669562 36.91245372 1.04829309 36.9296875 4.53515625 C36.76957029 14.19411879 35.02488303 23.72694608 33.55078125 33.25390625 C33.10744988 36.1272522 32.66685539 39.00085736 32.23597717 41.87609863 C31.9696154 43.65350465 31.69619084 45.42987056 31.41477966 47.20495605 C31.29457962 48.00679321 31.17437958 48.80863037 31.05053711 49.63476562 C30.94172714 50.33581421 30.83291718 51.03686279 30.72080994 51.75915527 C30.60244481 53.95493162 30.97924805 55.65874748 31.61328125 57.75390625 C33.59328125 58.24890625 33.59328125 58.24890625 35.61328125 58.75390625 C36.42578125 60.37890625 36.42578125 60.37890625 36.61328125 62.75390625 C33.14654308 68.30068732 28.88369682 70.98634029 22.61328125 72.75390625 C19.19367823 73.2834251 15.96174968 73.72701711 12.61328125 72.75390625 C10.54026355 70.53777226 9.5916346 68.92030502 9.64892578 65.83325195 C9.96119517 63.57151447 10.38898199 61.36223005 10.86328125 59.12890625 C11.17237308 57.51100625 11.47837668 55.89251313 11.78125 54.2734375 C11.92997559 53.49436035 12.07870117 52.7152832 12.23193359 51.91259766 C12.85714103 48.37349128 13.10212882 44.82605835 13.36328125 41.24609375 C13.62966023 38.59062831 14.13071437 36.05318505 14.67578125 33.44140625 C15.95654149 26.89529834 15.78785983 20.39759127 15.61328125 13.75390625 C14.62328125 13.25890625 14.62328125 13.25890625 13.61328125 12.75390625 C13.32453125 13.86765625 13.03578125 14.98140625 12.73828125 16.12890625 C11.61328125 19.75390625 11.61328125 19.75390625 9.61328125 21.75390625 C7.30078125 22.19140625 7.30078125 22.19140625 4.61328125 21.75390625 C2.23828125 19.62890625 2.23828125 19.62890625 -0.38671875 16.75390625 C-3.46448393 13.72683368 -6.17727959 11.2008729 -10.26171875 9.69140625 C-15.46861811 9.79554424 -20.09793257 10.87630893 -24.19140625 14.234375 C-31.37376284 22.04206115 -32.7308388 31.8992969 -32.60546875 42.1953125 C-32.0552388 48.63103777 -29.91406095 54.08052075 -25.38671875 58.75390625 C-21.40181021 60.74636052 -16.71836853 60.27487494 -12.38671875 59.75390625 C-8.0017898 57.98080579 -4.96831572 55.37704586 -1.76171875 51.94140625 C0.61328125 49.75390625 0.61328125 49.75390625 3.86328125 49.37890625 C6.61328125 49.75390625 6.61328125 49.75390625 7.61328125 50.75390625 C8.30418097 56.03192704 8.01661796 60.7958455 5.07421875 65.32421875 C2.71259297 67.63532847 0.06027382 68.30220494 -3.08203125 69.13671875 C-5.22199679 69.70979427 -7.07196067 70.44451915 -9.07421875 71.37890625 C-17.68532439 74.95332746 -27.22058934 74.72594939 -35.99609375 71.80078125 C-43.80683585 68.38039092 -49.26120346 62.77462374 -52.63671875 55.00390625 C-56.05896008 44.95446741 -55.93712125 32.94841167 -51.70703125 23.171875 C-45.1643948 11.18994612 -35.40399045 2.84705646 -22.38671875 -1.24609375 C-14.20238558 -2.84826371 -7.92815821 -2.37500543 0 0 Z " fill="#0359DC" transform="translate(317.38671875,239.24609375)"/>
<path d="M0 0 C0.63959391 19.72081218 0.63959391 19.72081218 -3 27 C-2.50371094 26.66226562 -2.00742187 26.32453125 -1.49609375 25.9765625 C5.16404596 21.60387115 10.87486788 19.28399428 18.921875 20.4609375 C23.1300097 21.55252131 25.2904954 24.01176145 27.75 27.4375 C31.35470788 34.82715116 30.38531999 43.7085196 27.921875 51.33984375 C25.96823107 56.10037971 23.89408551 60.7285155 21 65 C20.34 65 19.68 65 19 65 C19 65.66 19 66.32 19 67 C16.91796875 68.47265625 16.91796875 68.47265625 14.1875 70.0625 C13.29417969 70.58972656 12.40085937 71.11695313 11.48046875 71.66015625 C4.62792987 75.36160638 -5.18806581 75.09647847 -12.69140625 73.38671875 C-17.1139275 71.48176178 -19.29167416 68.74477658 -21.40625 64.48828125 C-23.13960519 57.22415455 -21.63947934 49.75257975 -20.5 42.5 C-19.48119711 35.44192012 -18.64394849 28.44733798 -18.5 21.3125 C-18.46970703 20.61253906 -18.43941406 19.91257812 -18.40820312 19.19140625 C-18.34699455 17.00975424 -18.34699455 17.00975424 -19 14 C-21.39339885 11.9772863 -21.39339885 11.9772863 -24 11 C-23.51060498 6.47309609 -23.51060498 6.47309609 -21.3515625 4.47265625 C-18.52501192 2.70254069 -15.80780569 1.74416308 -12.625 0.75 C-10.97371094 0.21632812 -10.97371094 0.21632812 -9.2890625 -0.328125 C-5.81082392 -1.03864404 -3.43001585 -0.80828168 0 0 Z M1.375 35.8125 C-4.51977695 43.72391116 -5.9503404 52.29406445 -5 62 C-4.67 62.66 -4.34 63.32 -4 64 C-0.04116177 64.46033003 1.50290208 64.39305417 4.6875 61.875 C10.47398215 54.68099517 11.42002158 47.93353591 11 39 C10.57549372 36.10913026 10.57549372 36.10913026 10 34 C6.26578534 33.56578899 4.51044872 33.64754731 1.375 35.8125 Z " fill="#0659D8" transform="translate(433,238)"/>
<path d="M0 0 C2.56569797 2.56569797 2.29791023 3.55536931 2.3125 7.125 C2.22573793 13.67159236 1.03816677 19.76845324 -0.34375 26.140625 C-1.03948858 30.23223048 -1.11032383 33.86285634 -1 38 C1.29294488 38.85974801 1.29294488 38.85974801 4 39 C8.0199236 36.01377104 9.57569354 32.33949328 10.45483398 27.4921875 C10.55094971 26.62851562 10.64706543 25.76484375 10.74609375 24.875 C10.86146484 23.92109375 10.97683594 22.9671875 11.09570312 21.984375 C11.32351756 19.99522952 11.54747842 18.00563889 11.76757812 16.015625 C12.89686062 6.78171285 12.89686062 6.78171285 16 3 C19.19124144 0.87250571 20.76071575 0.56444398 24.5 0.1875 C25.93859375 0.02314453 25.93859375 0.02314453 27.40625 -0.14453125 C30 0 30 0 31.88671875 0.984375 C33.69660482 4.26122137 32.83814377 7.50481662 32.3125 11.0625 C32.10236819 12.67571667 31.89274868 14.28900014 31.68359375 15.90234375 C31.56999512 16.73620605 31.45639648 17.57006836 31.33935547 18.42919922 C30.78174177 22.65342387 30.33288643 26.88901809 29.875 31.125 C29.70624226 32.64849442 29.53701921 34.17193742 29.3671875 35.6953125 C29.18542969 37.33113281 29.18542969 37.33113281 29 39 C30.65 39.33 32.3 39.66 34 40 C33.74922088 43.67809371 33.48503402 45.50070028 30.875 48.1875 C25.77318634 51.40386079 21.14644681 53.83815184 15 53 C12.44050454 51.14657225 12.02081202 50.06243607 11 47 C9.7315625 47.928125 9.7315625 47.928125 8.4375 48.875 C2.39878238 52.84450669 -4.87782345 54.32187597 -12 53 C-15.43600049 51.08627821 -18.3452468 48.87289869 -19.671875 45.078125 C-20.81412619 37.84386744 -19.72751786 30.91401374 -18.4609375 23.7734375 C-17.88678766 20.31880713 -17.55556325 17.4814212 -18 14 C-19.86124923 12.01760473 -19.86124923 12.01760473 -22 11 C-21.8046875 8.671875 -21.8046875 8.671875 -21 6 C-18.8203125 4.453125 -18.8203125 4.453125 -16.125 3.25 C-15.24070312 2.84265625 -14.35640625 2.4353125 -13.4453125 2.015625 C-8.59959555 0.00302691 -5.19925985 -0.2475838 0 0 Z " fill="#0359DC" transform="translate(375,259)"/>
<path d="M0 0 C0.66 0.66 1.32 1.32 2 2 C-4.28571429 4.42857143 -4.28571429 4.42857143 -8 3 C-7.50438099 5.23028553 -6.90935757 7.20961061 -6 9.3125 C-4.80684325 12.51910877 -4.39867742 15.61124193 -4 19 C-0.7 19 2.6 19 6 19 C5.34 19.99 4.68 20.98 4 22 C0.18489842 22.49455021 -2.08136287 22.58019187 -5.375 20.5 C-7.65979101 16.9849369 -7.72230054 14.1654919 -8 10 C-8.66 10 -9.32 10 -10 10 C-10.33 10.99 -10.66 11.98 -11 13 C-12.65 13 -14.3 13 -16 13 C-16 13.66 -16 14.32 -16 15 C-16.99 15 -17.98 15 -19 15 C-19 14.01 -19 13.02 -19 12 C-20.65 12 -22.3 12 -24 12 C-24.33 10.68 -24.66 9.36 -25 8 C-27.97 10.475 -27.97 10.475 -31 13 C-31.66 12.67 -32.32 12.34 -33 12 C-23.50349452 2.75044856 -13.61290662 -3.13096852 0 0 Z " fill="#0C59CF" transform="translate(202,177)"/>
<path d="M0 0 C0.33 0 0.66 0 1 0 C1.06058594 1.03640625 1.12117187 2.0728125 1.18359375 3.140625 C1.26803371 4.51042873 1.35267997 5.88021975 1.4375 7.25 C1.47681641 7.93191406 1.51613281 8.61382812 1.55664062 9.31640625 C1.76666472 12.64448041 2.01934002 15.80255402 3 19 C7.64586892 18.51515724 7.64586892 18.51515724 12 17 C11.979375 17.94875 11.95875 18.8975 11.9375 19.875 C11.77448174 22.90666283 11.77448174 22.90666283 13 25 C15.02463255 25.65213292 15.02463255 25.65213292 17 26 C17 25.34 17 24.68 17 24 C17.99 24 18.98 24 20 24 C20 22.35 20 20.7 20 19 C23.465 18.505 23.465 18.505 27 18 C27 18.99 27 19.98 27 21 C24.59461654 23.34433312 21.7850027 25.13313006 19 27 C18.0925 27.61875 17.185 28.2375 16.25 28.875 C8.74051915 31.47443568 1.01038542 30.47938074 -6.35546875 27.8515625 C-8 27 -8 27 -9 25 C-7.02 25.33 -5.04 25.66 -3 26 C-2.855625 24.700625 -2.71125 23.40125 -2.5625 22.0625 C-2.125 18.125 -2.125 18.125 -1 17 C-0.76298761 14.14122091 -0.57780818 11.30116703 -0.4375 8.4375 C-0.39431641 7.63119141 -0.35113281 6.82488281 -0.30664062 5.99414062 C-0.20024738 3.99631195 -0.09959112 1.9981793 0 0 Z " fill="#0A5BD2" transform="translate(134,201)"/>
<path d="M0 0 C0.99386719 0.00902344 1.98773438 0.01804688 3.01171875 0.02734375 C4.15060547 0.04474609 4.15060547 0.04474609 5.3125 0.0625 C6.61910357 4.35977397 5.9721762 7.66465865 5.3125 12.0625 C8.9425 12.0625 12.5725 12.0625 16.3125 12.0625 C16.8075 15.0325 16.8075 15.0325 17.3125 18.0625 C19.6225 16.4125 21.9325 14.7625 24.3125 13.0625 C24.9725 13.3925 25.6325 13.7225 26.3125 14.0625 C25.6525 15.0525 24.9925 16.0425 24.3125 17.0625 C23.3225 17.0625 22.3325 17.0625 21.3125 17.0625 C21.291875 17.825625 21.27125 18.58875 21.25 19.375 C20.3125 22.0625 20.3125 22.0625 16.875 23.8125 C15.699375 24.225 14.52375 24.6375 13.3125 25.0625 C12.3225 25.5575 12.3225 25.5575 11.3125 26.0625 C11.9725 24.7425 12.6325 23.4225 13.3125 22.0625 C10.6725 21.0725 8.0325 20.0825 5.3125 19.0625 C5.374375 18.27875 5.43625 17.495 5.5 16.6875 C5.438125 15.82125 5.37625 14.955 5.3125 14.0625 C4.3225 13.4025 3.3325 12.7425 2.3125 12.0625 C2.3125 11.0725 2.3125 10.0825 2.3125 9.0625 C2.9725 9.0625 3.6325 9.0625 4.3125 9.0625 C4.3125 6.4225 4.3125 3.7825 4.3125 1.0625 C2.35106959 1.26344165 0.39318209 1.49921253 -1.5625 1.75 C-2.65304688 1.87761719 -3.74359375 2.00523437 -4.8671875 2.13671875 C-7.86449497 2.77788694 -7.86449497 2.77788694 -9.0703125 5.39453125 C-9.83775358 8.25560954 -9.83775358 8.25560954 -9.6875 12.0625 C-14.97980769 15.13942308 -14.97980769 15.13942308 -18.5625 14.75 C-19.26375 14.523125 -19.965 14.29625 -20.6875 14.0625 C-17.72062999 12.41423889 -15.03123475 11.61978913 -11.6875 11.0625 C-11.56375 9.969375 -11.44 8.87625 -11.3125 7.75 C-10.6875 4.0625 -10.6875 4.0625 -8.6875 1.0625 C-5.53819107 0.01273036 -3.29935544 -0.03881595 0 0 Z " fill="#0D5BD1" transform="translate(224.6875,165.9375)"/>
<path d="M0 0 C2.02045442 0.60183749 4.02111039 1.27306096 6 2 C7.49297212 4.98594424 7.11755228 7.70853624 7 11 C6.67 11.66 6.34 12.32 6 13 C3.36 13 0.72 13 -2 13 C-1.67 13.66 -1.34 14.32 -1 15 C1.64 14.67 4.28 14.34 7 14 C7 14.66 7 15.32 7 16 C6.2265625 16.680625 6.2265625 16.680625 5.4375 17.375 C4.963125 17.91125 4.48875 18.4475 4 19 C4.22757731 21.16299211 4.22757731 21.16299211 5 23 C4.34 23 3.68 23 3 23 C2.67 23.99 2.34 24.98 2 26 C1.34 24.68 0.68 23.36 0 22 C-0.33 22.99 -0.66 23.98 -1 25 C-2.32 24.34 -3.64 23.68 -5 23 C-6.32 24.32 -7.64 25.64 -9 27 C-8.125 20.125 -8.125 20.125 -7 19 C-7.33 18.34 -7.66 17.68 -8 17 C-7.67 16.01 -7.34 15.02 -7 14 C-7.721875 14.309375 -8.44375 14.61875 -9.1875 14.9375 C-12.86714109 16.32758663 -16.06795949 17 -20 17 C-14.99083882 11.85545608 -10.15449598 10.35318386 -3 10 C-0.12325731 10.38386676 2.23424567 11.06068721 5 12 C4.93993922 10.54052295 4.8511311 9.08220728 4.75 7.625 C4.70359375 6.81289062 4.6571875 6.00078125 4.609375 5.1640625 C4.2077908 2.81161073 4.2077908 2.81161073 1.953125 1.7109375 C1.30859375 1.47632813 0.6640625 1.24171875 0 1 C0 0.67 0 0.34 0 0 Z " fill="#0B5AD1" transform="translate(100,166)"/>
<path d="M0 0 C0.625 1.75 0.625 1.75 1 4 C0.6803125 4.5775 0.360625 5.155 0.03125 5.75 C-1.31894581 8.69588177 -1.19510359 11.02523505 -1.125 14.25 C-1.10695313 15.32765625 -1.08890625 16.4053125 -1.0703125 17.515625 C-1.04710938 18.33546875 -1.02390625 19.1553125 -1 20 C1.73414102 21.11390931 2.76823033 21.09576965 5.54296875 19.94921875 C8.56900485 17.54859552 9.69795863 15.30441505 11.3125 11.8125 C12.08013672 10.18248047 12.08013672 10.18248047 12.86328125 8.51953125 C13.23839844 7.68808594 13.61351563 6.85664063 14 6 C14.66 6 15.32 6 16 6 C16 7.32 16 8.64 16 10 C15.34 10 14.68 10 14 10 C13.9175 10.515625 13.835 11.03125 13.75 11.5625 C12.87765494 14.39762144 11.43150299 16.71207468 9.921875 19.25 C8.76468647 21.44669687 8.29759392 23.54485016 8 26 C9.98 25.67 11.96 25.34 14 25 C13.67 25.99 13.34 26.98 13 28 C12.34 28 11.68 28 11 28 C11 28.99 11 29.98 11 31 C7.7 31.66 4.4 32.32 1 33 C0.34 31.35 -0.32 29.7 -1 28 C-0.01 27.67 0.98 27.34 2 27 C2 26.01 2 25.02 2 24 C0.02 23.67 -1.96 23.34 -4 23 C-3.91275184 20.10275937 -3.80584073 17.20849865 -3.6875 14.3125 C-3.66494141 13.49587891 -3.64238281 12.67925781 -3.61914062 11.83789062 C-3.4078204 7.09279093 -2.97250382 3.91286695 0 0 Z " fill="#0E5ACF" transform="translate(87,196)"/>
<path d="M0 0 C1 3 1 3 1 7 C1.66 6.67 2.32 6.34 3 6 C5.125 6.4375 5.125 6.4375 7 7 C6.4375 8.8125 6.4375 8.8125 5 11 C1.8125 12.5625 1.8125 12.5625 -0.08984375 13.2734375 C-2.26816633 14.0600249 -2.26816633 14.0600249 -5.25 15.6875 C-12.7322091 18.30627318 -19.82195029 17.47857395 -27.22265625 14.94921875 C-29 14 -29 14 -31 11 C-28.69 11.66 -26.38 12.32 -24 13 C-24 13.66 -24 14.32 -24 15 C-22.08302063 14.85833643 -20.16642277 14.71150416 -18.25 14.5625 C-17.18265625 14.48128906 -16.1153125 14.40007812 -15.015625 14.31640625 C-12.12453093 14.08419394 -12.12453093 14.08419394 -9.859375 13.46484375 C-8 13 -8 13 -4 13 C-3.67 11.35 -3.34 9.7 -3 8 C-8.445 7.505 -8.445 7.505 -14 7 C-13.67 6.34 -13.34 5.68 -13 5 C-11.07421875 4.47265625 -11.07421875 4.47265625 -8.6875 4.0625 C-5.10179958 3.34878574 -2.70773508 2.59000746 0 0 Z " fill="#0958CE" transform="translate(200,214)"/>
<path d="M0 0 C1.3112793 1.73510742 1.3112793 1.73510742 1.46826172 3.63623047 C1.31901245 4.68097534 1.31901245 4.68097534 1.16674805 5.74682617 C1.0668457 6.50415039 0.96694336 7.26147461 0.86401367 8.04174805 C0.74348633 8.82743164 0.62295898 9.61311523 0.4987793 10.42260742 C0.33539063 11.61853516 0.33539063 11.61853516 0.16870117 12.83862305 C-0.10228469 14.80621606 -0.39357278 16.77099355 -0.6887207 18.73510742 C-1.0187207 18.73510742 -1.3487207 18.73510742 -1.6887207 18.73510742 C-1.6887207 13.45510742 -1.6887207 8.17510742 -1.6887207 2.73510742 C-7.19136499 2.66567028 -7.19136499 2.66567028 -12.0012207 4.11010742 C-12.67797852 4.3653418 -13.35473633 4.62057617 -14.05200195 4.88354492 C-15.8818103 5.63208233 -15.8818103 5.63208233 -16.6887207 7.73510742 C-16.87307102 9.66932266 -17.01130006 11.60802838 -17.1262207 13.54760742 C-17.59694486 20.35033079 -18.55577243 27.01441428 -19.6887207 33.73510742 C-20.3487207 33.73510742 -21.0087207 33.73510742 -21.6887207 33.73510742 C-21.6887207 34.39510742 -21.6887207 35.05510742 -21.6887207 35.73510742 C-22.3487207 35.73510742 -23.0087207 35.73510742 -23.6887207 35.73510742 C-23.49536133 34.98229492 -23.30200195 34.22948242 -23.1027832 33.45385742 C-21.20453515 25.71050894 -20.0628873 18.19503719 -19.3137207 10.26635742 C-18.67852199 6.67748471 -17.86721847 4.62580638 -15.6887207 1.73510742 C-11.47509382 -1.07397717 -4.48268187 -3.35763695 0 0 Z " fill="#1056CB" transform="translate(406.688720703125,260.264892578125)"/>
<path d="M0 0 C0.66 0.33 1.32 0.66 2 1 C3.71939923 6.15819768 3.62458192 11.08951412 1.9375 16.25 C-1.7015326 21.41507853 -6.42848398 24.51492686 -12.69921875 25.78125 C-21.54973509 26.62272524 -29.72933368 25.34341947 -36.6875 19.609375 C-38.60216675 17.26162887 -38.46318928 14.94403471 -38.37109375 12.0078125 C-37.80376745 8.93827863 -36.16153249 7.16153249 -34 5 C-32.68 5.33 -31.36 5.66 -30 6 C-30.825 6.309375 -31.65 6.61875 -32.5 6.9375 C-35.20593884 8.70218038 -35.20593884 8.70218038 -35.33203125 11.203125 C-35.31408275 13.48617399 -35.2143984 15.72737696 -35 18 C-26.76869651 23.82011358 -19.48663411 23.80084585 -9.75 22.5 C-8.38875 22.2525 -8.38875 22.2525 -7 22 C-6.67 20.68 -6.34 19.36 -6 18 C-5.01 18 -4.02 18 -3 18 C0.47889394 13.80486318 1.56857074 10.39286575 2 5 C1.34 5 0.68 5 0 5 C0 3.35 0 1.7 0 0 Z " fill="#1354C9" transform="translate(351,205)"/>
<path d="M0 0 C2.95030531 0.3278117 4.85176438 0.9063775 7.375 2.5 C9.54502965 5.83850715 9.23228377 7.95577404 8.62890625 11.8046875 C7.7592096 14.840523 6.21200303 16.78799697 4 19 C3.01 18.67 2.02 18.34 1 18 C-0.1875 14.9375 -0.1875 14.9375 -1 12 C-0.01 12 0.98 12 2 12 C2 10.02 2 8.04 2 6 C2.66 6 3.32 6 4 6 C3.67 5.34 3.34 4.68 3 4 C2.01 4.495 2.01 4.495 1 5 C0.34 4.67 -0.32 4.34 -1 4 C-0.67 2.68 -0.34 1.36 0 0 Z " fill="#0C5BCE" transform="translate(346,178)"/>
<path d="M0 0 C0.495 0.99 0.495 0.99 1 2 C0.0925 1.649375 -0.815 1.29875 -1.75 0.9375 C-4.87758436 0.03531221 -6.05208081 -0.13381507 -9 1 C-9 0.01 -9 -0.98 -9 -2 C-11.64 -2.33 -14.28 -2.66 -17 -3 C-17 -1.68 -17 -0.36 -17 1 C-18.65 1 -20.3 1 -22 1 C-22 1.66 -22 2.32 -22 3 C-24.01822917 2.96744792 -26.03645833 2.93489583 -28.0546875 2.90234375 C-30.08185404 2.87350758 -30.08185404 2.87350758 -32 4 C-32 2.68 -32 1.36 -32 0 C-20.98736205 -5.26159368 -10.57237628 -7.42315781 0 0 Z " fill="#0959D3" transform="translate(162,181)"/>
<path d="M0 0 C0.66 0.33 1.32 0.66 2 1 C2.64728507 12.41738944 0.69358279 23.49733583 -1 34.75 C-1.28984835 36.71863446 -1.57891726 38.68738384 -1.8671875 40.65625 C-2.56914461 45.43887254 -3.28163496 50.21981564 -4 55 C-4.33 55 -4.66 55 -5 55 C-5 51.37 -5 47.74 -5 44 C-5.66 44 -6.32 44 -7 44 C-6.67 41.03 -6.34 38.06 -6 35 C-4 36 -4 36 -3 37 C-3 31.72 -3 26.44 -3 21 C-2.34 21 -1.68 21 -1 21 C-1 17.37 -1 13.74 -1 10 C-0.67 10 -0.34 10 0 10 C0 6.7 0 3.4 0 0 Z " fill="#135BC8" transform="translate(352,238)"/>
<path d="M0 0 C0.33 0 0.66 0 1 0 C0.86181468 3.47951523 0.71317399 6.95850495 0.5625 10.4375 C0.52318359 11.43072266 0.48386719 12.42394531 0.44335938 13.44726562 C0.40146484 14.39150391 0.35957031 15.33574219 0.31640625 16.30859375 C0.27974854 17.18314209 0.24309082 18.05769043 0.20532227 18.95874023 C0 21 0 21 -1 22 C-1.1848903 23.55836106 -1.32286649 25.12240167 -1.4375 26.6875 C-1.79627302 30.72080314 -2.50342883 34.20868637 -4 38 C-2.68 38.33 -1.36 38.66 0 39 C-0.33 39.99 -0.66 40.98 -1 42 C1.64 42.33 4.28 42.66 7 43 C7 43.33 7 43.66 7 44 C5.39815374 44.1352403 3.79303374 44.23210847 2.1875 44.3125 C1.29417969 44.37050781 0.40085937 44.42851562 -0.51953125 44.48828125 C-3 44 -3 44 -4.90234375 42.01953125 C-6.44045923 37.78834524 -5.66809948 34.69758704 -4.75 30.375 C-4.44087879 28.75840818 -4.13487565 27.14121694 -3.83203125 25.5234375 C-3.68330566 24.74452148 -3.53458008 23.96560547 -3.38134766 23.16308594 C-2.90288275 20.44913008 -2.63825156 17.747541 -2.4375 15 C-2.05786369 9.89863714 -1.11438764 4.98769612 0 0 Z " fill="#1B58BF" transform="translate(333,268)"/>
<path d="M0 0 C-0.66 1.65 -1.32 3.3 -2 5 C-3.32 4.67 -4.64 4.34 -6 4 C-5.65324219 4.82371094 -5.30648438 5.64742188 -4.94921875 6.49609375 C-3.83856383 10.59591871 -4.17047094 13.94505616 -4.8125 18.0625 C-4.90853516 18.75666016 -5.00457031 19.45082031 -5.10351562 20.16601562 C-5.61816448 23.80309778 -6.23660209 27.40712728 -7 31 C-7.33 31 -7.66 31 -8 31 C-7.94875977 30.44014404 -7.89751953 29.88028809 -7.84472656 29.3034668 C-7.62475397 26.76615137 -7.43705733 24.22744508 -7.25 21.6875 C-7.16878906 20.80642578 -7.08757812 19.92535156 -7.00390625 19.01757812 C-6.83964702 16.61756821 -6.72156983 14.39024246 -7 12 C-8.79570653 9.8226715 -8.79570653 9.8226715 -11 9 C-11 6.75 -11 6.75 -10 4 C-7.00985547 1.94304343 -3.686098 0 0 0 Z " fill="#115BC6" transform="translate(364,261)"/>
<path d="M0 0 C0.7734375 0.495 0.7734375 0.495 1.5625 1 C4.78026512 2.32010877 7.5570528 2.13242105 11 2 C11 2.66 11 3.32 11 4 C12.62566606 3.52309796 14.25051311 3.04340334 15.875 2.5625 C17.23238281 2.16224609 17.23238281 2.16224609 18.6171875 1.75390625 C20.98275381 1.07386174 20.98275381 1.07386174 23 0 C23.33 1.32 23.66 2.64 24 4 C18.62307243 7.33048499 12.07289543 6.71693904 6 6 C3.1557805 4.62726906 2.05108075 3.47336208 0 1 C0 0.67 0 0.34 0 0 Z " fill="#0E5CCF" transform="translate(207,224)"/>
<path d="M0 0 C1.32 0.33 2.64 0.66 4 1 C4 2.98 4 4.96 4 7 C4.78375 6.814375 5.5675 6.62875 6.375 6.4375 C9 6 9 6 11 7 C13.3400417 6.71758117 15.67504723 6.38749213 18 6 C14.74775013 9.25224987 11.48737792 9.60537019 7.12109375 10.1796875 C5 10 5 10 3.28515625 8.6953125 C2 7 2 7 1 4 C0.38125 4.495 -0.2375 4.99 -0.875 5.5 C-3 7 -3 7 -5 7 C-5 6.34 -5 5.68 -5 5 C-4.34 5 -3.68 5 -3 5 C-3 4.34 -3 3.68 -3 3 C-2.34 3 -1.68 3 -1 3 C-0.67 2.01 -0.34 1.02 0 0 Z " fill="#185DC7" transform="translate(385,302)"/>
<path d="M0 0 C-1.78847964 5.36543893 -7.25650444 7.83766963 -11.8125 10.875 C-16.51807605 12.53579155 -21.0602119 12.23732078 -26 12 C-26 11.67 -26 11.34 -26 11 C-22.7 11 -19.4 11 -16 11 C-15.67 9.68 -15.34 8.36 -15 7 C-13.68 7.33 -12.36 7.66 -11 8 C-11 7.34 -11 6.68 -11 6 C-10.01 6 -9.02 6 -8 6 C-8 4.35 -8 2.7 -8 1 C-5.29120665 -0.35439668 -2.99066732 -0.06501451 0 0 Z " fill="#0B5ACC" transform="translate(162,219)"/>
<path d="M0 0 C2.31 0.66 4.62 1.32 7 2 C7 2.66 7 3.32 7 4 C8.91697937 3.85833643 10.83357723 3.71150416 12.75 3.5625 C14.35101563 3.44068359 14.35101563 3.44068359 15.984375 3.31640625 C18.87546907 3.08419394 18.87546907 3.08419394 21.140625 2.46484375 C23 2 23 2 27 2 C27 1.34 27 0.68 27 0 C28.65 0 30.3 0 32 0 C28.74214448 4.02440975 24.42327134 5.7254602 19.4140625 6.29296875 C13.3302637 6.47190401 7.44867789 5.90995325 2 3 C1.34 2.01 0.68 1.02 0 0 Z " fill="#225FC3" transform="translate(169,225)"/>
<path d="M0 0 C1.0209375 0.2165625 1.0209375 0.2165625 2.0625 0.4375 C8.15014236 2.01659643 8.15014236 2.01659643 14 1 C14 1.66 14 2.32 14 3 C15.32 3.66 16.64 4.32 18 5 C17.67 6.65 17.34 8.3 17 10 C16.01 9.67 15.02 9.34 14 9 C14 8.34 14 7.68 14 7 C12.02 7 10.04 7 8 7 C7.67 6.01 7.34 5.02 7 4 C3.48809191 2.77030122 3.48809191 2.77030122 0 2 C0 1.34 0 0.68 0 0 Z " fill="#074FD5" transform="translate(302,192)"/>
<path d="M0 0 C0.99386719 0.00902344 1.98773438 0.01804688 3.01171875 0.02734375 C4.15060547 0.04474609 4.15060547 0.04474609 5.3125 0.0625 C6.4825097 3.97986581 6.00834017 7.04209015 5.3125 11.0625 C4.9825 11.0625 4.6525 11.0625 4.3125 11.0625 C4.3125 7.7625 4.3125 4.4625 4.3125 1.0625 C2.35106959 1.26344165 0.39318209 1.49921253 -1.5625 1.75 C-2.65304688 1.87761719 -3.74359375 2.00523437 -4.8671875 2.13671875 C-7.86449497 2.77788694 -7.86449497 2.77788694 -9.0703125 5.39453125 C-9.83775358 8.25560954 -9.83775358 8.25560954 -9.6875 12.0625 C-14.97980769 15.13942308 -14.97980769 15.13942308 -18.5625 14.75 C-19.26375 14.523125 -19.965 14.29625 -20.6875 14.0625 C-17.72062999 12.41423889 -15.03123475 11.61978913 -11.6875 11.0625 C-11.56375 9.969375 -11.44 8.87625 -11.3125 7.75 C-10.6875 4.0625 -10.6875 4.0625 -8.6875 1.0625 C-5.53819107 0.01273036 -3.29935544 -0.03881595 0 0 Z " fill="#1E5DBF" transform="translate(224.6875,165.9375)"/>
<path d="M0 0 C0.33 0 0.66 0 1 0 C1.33 2.64 1.66 5.28 2 8 C4.91482778 8.80967438 6.46113217 9.21845993 9.3125 8.0625 C9.869375 7.711875 10.42625 7.36125 11 7 C11 8.32 11 9.64 11 11 C7.80684919 12.89223752 5.65336936 13 2 13 C1.01 13.66 0.02 14.32 -1 15 C-1.33 14.34 -1.66 13.68 -2 13 C-1.34 13 -0.68 13 0 13 C-0.33 12.34 -0.66 11.68 -1 11 C-1.09534254 9.3146804 -1.12985758 7.62550734 -1.125 5.9375 C-1.12757813 5.03902344 -1.13015625 4.14054687 -1.1328125 3.21484375 C-1 1 -1 1 0 0 Z " fill="#0C59C6" transform="translate(372,289)"/>
<path d="M0 0 C0.33 0 0.66 0 1 0 C0.94779297 1.54107422 0.94779297 1.54107422 0.89453125 3.11328125 C0.69811678 11.57547116 1.12387973 18.91947163 4 27 C3.34 27 2.68 27 2 27 C1.34 26.01 0.68 25.02 0 24 C-2.05925139 23.27617533 -2.05925139 23.27617533 -4 23 C-4 22.01 -4 21.02 -4 20 C-3.34 19.67 -2.68 19.34 -2 19 C-1.93941406 17.71222656 -1.87882812 16.42445313 -1.81640625 15.09765625 C-1.73201753 13.41925841 -1.6473687 11.74087364 -1.5625 10.0625 C-1.50352539 8.78729492 -1.50352539 8.78729492 -1.44335938 7.48632812 C-1.40146484 6.67744141 -1.35957031 5.86855469 -1.31640625 5.03515625 C-1.27974854 4.2862915 -1.24309082 3.53742676 -1.20532227 2.76586914 C-1 1 -1 1 0 0 Z " fill="#125AC8" transform="translate(284,268)"/>
<path d="M0 0 C0.33 0.66 0.66 1.32 1 2 C0.7009375 2.57878906 0.401875 3.15757812 0.09375 3.75390625 C-1.27630726 6.56741669 -1.34570841 8.81695263 -1.5 11.9375 C-1.92208075 18.70614037 -2.87331102 25.3164372 -4 32 C-4.66 32 -5.32 32 -6 32 C-6 32.66 -6 33.32 -6 34 C-6.66 34 -7.32 34 -8 34 C-7.80664062 33.2471875 -7.61328125 32.494375 -7.4140625 31.71875 C-5.51581445 23.97540152 -4.37416659 16.45992977 -3.625 8.53125 C-2.99968009 4.99819254 -2.05449954 2.90309717 0 0 Z " fill="#1B58BE" transform="translate(391,262)"/>
<path d="M0 0 C1.98 0.99 1.98 0.99 4 2 C4.09507063 8.43311296 4.15316726 14.65758005 3 21 C2.34 21 1.68 21 1 21 C0.67 14.07 0.34 7.14 0 0 Z " fill="#166CE8" transform="translate(282,188)"/>
<path d="M0 0 C1.32 0.33 2.64 0.66 4 1 C2.7625 1.4640625 2.7625 1.4640625 1.5 1.9375 C-1.20593884 3.70218038 -1.20593884 3.70218038 -1.33203125 6.203125 C-1.31408275 8.48617399 -1.2143984 10.72737696 -1 13 C-0.04287109 13.50660156 -0.04287109 13.50660156 0.93359375 14.0234375 C1.75988281 14.46945313 2.58617187 14.91546875 3.4375 15.375 C4.67306641 16.03628906 4.67306641 16.03628906 5.93359375 16.7109375 C8 18 8 18 9 20 C-1.48739496 17.04201681 -1.48739496 17.04201681 -4 13 C-4.62388198 8.08692938 -4.75777063 6.13665594 -2 2 C-1.34 1.34 -0.68 0.68 0 0 Z " fill="#1E5AB5" transform="translate(317,210)"/>
<path d="M0 0 C2.5 1.5 2.5 1.5 4 3 C4.5775 2.690625 5.155 2.38125 5.75 2.0625 C7.84294184 1.07416636 9.74535275 0.4831387 12 0 C12 0.66 12 1.32 12 2 C8.58168085 4.5393228 6.24223102 5.3636198 2 5 C1.67 4.34 1.34 3.68 1 3 C-2.02934491 2.34227572 -2.02934491 2.34227572 -5 2 C-5.33 2.99 -5.66 3.98 -6 5 C-6.763125 4.835 -7.52625 4.67 -8.3125 4.5 C-11.03596236 3.90854604 -11.03596236 3.90854604 -14 4 C-9.12414595 0.09931676 -6.25190838 -0.70586062 0 0 Z " fill="#1D5ABC" transform="translate(317,178)"/>
<path d="M0 0 C1.65 0 3.3 0 5 0 C5 6.27 5 12.54 5 19 C4.34 18.67 3.68 18.34 3 18 C2.3671875 15.71484375 2.3671875 15.71484375 1.875 12.9375 C1.70742187 12.01839844 1.53984375 11.09929687 1.3671875 10.15234375 C1.24601563 9.44207031 1.12484375 8.73179687 1 8 C0.34 8 -0.32 8 -1 8 C-2.2077558 4.37673261 -1.54311128 3.35853631 0 0 Z " fill="#135FD5" transform="translate(178,197)"/>
<path d="M0 0 C-0.61488281 0.25007812 -1.22976563 0.50015625 -1.86328125 0.7578125 C-4.36859433 2.21428336 -4.9860275 3.27589622 -6.1875 5.875 C-6.51105469 6.55304688 -6.83460938 7.23109375 -7.16796875 7.9296875 C-8.87447619 12.17592666 -9.24322913 16.18898754 -9.5625 20.75 C-9.64628906 21.92046875 -9.73007813 23.0909375 -9.81640625 24.296875 C-9.87699219 25.18890625 -9.93757812 26.0809375 -10 27 C-10.33 27 -10.66 27 -11 27 C-11 20.73 -11 14.46 -11 8 C-10.34 8 -9.68 8 -9 8 C-8.67 5.36 -8.34 2.72 -8 0 C-4.71303767 -0.79953138 -3.28976808 -1.09658936 0 0 Z " fill="#155DC1" transform="translate(260,187)"/>
<path d="M0 0 C0.3403125 0.928125 0.3403125 0.928125 0.6875 1.875 C2.37929835 4.61410209 3.99244161 5.05024472 7 6 C5 8 5 8 2.79296875 8.15234375 C-5.1049237 7.50109325 -5.1049237 7.50109325 -8.125 4.4375 C-8.74375 3.633125 -9.3625 2.82875 -10 2 C-9.1028125 2.4640625 -9.1028125 2.4640625 -8.1875 2.9375 C-5.91043228 4.10209704 -5.91043228 4.10209704 -3 5 C-2.690625 4.360625 -2.38125 3.72125 -2.0625 3.0625 C-1 1 -1 1 0 0 Z " fill="#0F59CE" transform="translate(81,223)"/>
<path d="M0 0 C0.33 0.66 0.66 1.32 1 2 C1.66 2.33 2.32 2.66 3 3 C1.63875 3.99 1.63875 3.99 0.25 5 C-2.93590368 7.62987332 -4.48129032 10.39203169 -6.140625 14.1328125 C-7 16 -7 16 -9 19 C-8.855625 18.154375 -8.71125 17.30875 -8.5625 16.4375 C-7.9941203 12.96406851 -7.48797607 9.48554338 -7 6 C-5.68 6 -4.36 6 -3 6 C-2.814375 4.7934375 -2.814375 4.7934375 -2.625 3.5625 C-2.41875 2.716875 -2.2125 1.87125 -2 1 C-1.34 0.67 -0.68 0.34 0 0 Z " fill="#135CC6" transform="translate(294,248)"/>
<path d="M0 0 C0.66 0.33 1.32 0.66 2 1 C2.57014005 11.57926542 0.82283831 21.62718197 -1 32 C-1.33 32 -1.66 32 -2 32 C-1.67 24.74 -1.34 17.48 -1 10 C-0.67 10 -0.34 10 0 10 C0 6.7 0 3.4 0 0 Z " fill="#1E59BC" transform="translate(352,238)"/>
<path d="M0 0 C-0.33 1.65 -0.66 3.3 -1 5 C-2.65 5 -4.3 5 -6 5 C-6.66 6.32 -7.32 7.64 -8 9 C-7.01 9 -6.02 9 -5 9 C-5 9.66 -5 10.32 -5 11 C-7.475 10.01 -7.475 10.01 -10 9 C-9.6655974 5.90677596 -9.4404882 4.41112232 -7.125 2.25 C-4.74010858 0.84712269 -2.79433763 0 0 0 Z " fill="#0E56CB" transform="translate(419,240)"/>
<path d="M0 0 C0.66 0 1.32 0 2 0 C2 0.66 2 1.32 2 2 C3.32 2.66 4.64 3.32 6 4 C0.91383648 6.14154253 -4.5453903 7.06211872 -10 6 C-11.32 4.68 -12.64 3.36 -14 2 C-8.555 3.485 -8.555 3.485 -3 5 C-3 4.01 -3 3.02 -3 2 C-2.01 2 -1.02 2 0 2 C0 1.34 0 0.68 0 0 Z " fill="#0D5DCC" transform="translate(373,306)"/>
<path d="M0 0 C1.66611905 -0.042721 3.33382885 -0.04063832 5 0 C6.54076187 1.54076187 6.24356699 2.9844485 6.3125 5.125 C6.264135 10.17108148 4.95873549 12.94230562 2 17 C1.01 17.33 0.02 17.66 -1 18 C-1.66 17.34 -2.32 16.68 -3 16 C-1.68 16 -0.36 16 1 16 C1 14.02 1 12.04 1 10 C1.99 10 2.98 10 4 10 C4 7.03 4 4.06 4 1 C2.68 0.67 1.36 0.34 0 0 Z " fill="#1857C7" transform="translate(319,289)"/>
<path d="M0 0 C1.32 2.31 2.64 4.62 4 7 C4.66 6.67 5.32 6.34 6 6 C5.67 6.99 5.34 7.98 5 9 C3.35 9.33 1.7 9.66 0 10 C-0.98120464 6.94736336 -0.98120464 5.05263664 0 2 C-2.31 2 -4.62 2 -7 2 C-7.33 2.66 -7.66 3.32 -8 4 C-8.66 3.34 -9.32 2.68 -10 2 C-6.49223216 0.39644899 -3.85645121 -0.22036864 0 0 Z " fill="#185CC3" transform="translate(297,177)"/>
<path d="M0 0 C0.90901939 3.04842865 1.06173367 5.59661636 0.87890625 8.765625 C0.83056641 9.65507812 0.78222656 10.54453125 0.73242188 11.4609375 C0.64831055 12.84152344 0.64831055 12.84152344 0.5625 14.25 C0.51029297 15.18585938 0.45808594 16.12171875 0.40429688 17.0859375 C0.27493175 19.39098887 0.13997966 21.69557289 0 24 C-3.13324847 20.86675153 -2.96094541 17.30902271 -3 13 C-2.42007447 8.52812976 -1.42500181 4.27500542 0 0 Z " fill="#1859C1" transform="translate(69,198)"/>
<path d="M0 0 C0.99 0 1.98 0 3 0 C3 0.66 3 1.32 3 2 C4.32 2.33 5.64 2.66 7 3 C6.67 3.99 6.34 4.98 6 6 C6 5.34 6 4.68 6 4 C5.34 4 4.68 4 4 4 C3.67 4.66 3.34 5.32 3 6 C0.35139573 6.59355614 -2.29197322 6.74209269 -5 7 C-4.67 6.01 -4.34 5.02 -4 4 C-4.66 3.67 -5.32 3.34 -6 3 C-5.195625 2.87625 -4.39125 2.7525 -3.5625 2.625 C-2.716875 2.41875 -1.87125 2.2125 -1 2 C-0.67 1.34 -0.34 0.68 0 0 Z " fill="#0565CC" transform="translate(142,183)"/>
<path d="M0 0 C0.625 1.75 0.625 1.75 1 4 C0.68546875 4.58136719 0.3709375 5.16273438 0.046875 5.76171875 C-1.29291764 8.6262754 -1.33592991 10.90954405 -1.375 14.0625 C-1.40335937 15.10535156 -1.43171875 16.14820313 -1.4609375 17.22265625 C-1.26930284 20.13456005 -1.26930284 20.13456005 1.0234375 21.87109375 C1.67570312 22.24363281 2.32796875 22.61617187 3 23 C0.69 23 -1.62 23 -4 23 C-3.91275184 20.10275937 -3.80584073 17.20849865 -3.6875 14.3125 C-3.66494141 13.49587891 -3.64238281 12.67925781 -3.61914062 11.83789062 C-3.4078204 7.09279093 -2.97250382 3.91286695 0 0 Z " fill="#1A5AB7" transform="translate(87,196)"/>
<path d="M0 0 C1.25541557 3.76624671 0.37061958 5.37188934 -1 9 C0.32 9.33 1.64 9.66 3 10 C2.67 10.99 2.34 11.98 2 13 C4.64 13.33 7.28 13.66 10 14 C10 14.33 10 14.66 10 15 C6.62079066 15.2852991 3.37131633 15.42276957 0 15 C-2.1875 12.9375 -2.1875 12.9375 -3 10 C-2.78117292 5.76934307 -2.36113721 3.54170582 0 0 Z " fill="#0B50D1" transform="translate(330,297)"/>
<path d="M0 0 C1.65 0.33 3.3 0.66 5 1 C4.50769231 6.53846154 4.50769231 6.53846154 1.9375 8.875 C0.9784375 9.431875 0.9784375 9.431875 0 10 C-0.5625 8.0625 -0.5625 8.0625 -1 6 C-0.67 5.67 -0.34 5.34 0 5 C0.04063832 3.33382885 0.042721 1.66611905 0 0 Z " fill="#0852DC" transform="translate(404,298)"/>
<path d="M0 0 C1.4606285 2.64738916 2 3.89448334 2 7 C2.66 7.33 3.32 7.66 4 8 C3.34 9.98 2.68 11.96 2 14 C1.34 14 0.68 14 0 14 C-0.33 14.99 -0.66 15.98 -1 17 C-1.02699725 14.72923158 -1.04639453 12.45837179 -1.0625 10.1875 C-1.07990234 8.29064453 -1.07990234 8.29064453 -1.09765625 6.35546875 C-1 3 -1 3 0 0 Z " fill="#095FE0" transform="translate(282,205)"/>
<path d="M0 0 C0.4125 0.639375 0.825 1.27875 1.25 1.9375 C3.17810487 4.20990931 4.11424181 4.60196439 7 5 C7.625 6.875 7.625 6.875 8 9 C7.34 9.66 6.68 10.32 6 11 C5.34 10.01 4.68 9.02 4 8 C1.41619823 7.74969023 1.41619823 7.74969023 -1 8 C-2 6 -2 6 -1.0625 2.875 C-0.5365625 1.451875 -0.5365625 1.451875 0 0 Z " fill="#105ACD" transform="translate(346,293)"/>
<path d="M0 0 C0 0.66 0 1.32 0 2 C-6.40353322 2.2361959 -11.84629161 1.823321 -18 0 C-17.39671875 -0.15082031 -16.7934375 -0.30164063 -16.171875 -0.45703125 C-15.45515625 -0.63621094 -14.7384375 -0.81539062 -14 -1 C-8.6635689 -2.33410777 -5.17113376 -1.51567714 0 0 Z " fill="#195DC3" transform="translate(262,229)"/>
<path d="M0 0 C6.74206114 0.27131031 11.42860138 1.08816692 17 5 C17.33 5.66 17.66 6.32 18 7 C17.0925 6.649375 16.185 6.29875 15.25 5.9375 C12.12241564 5.03531221 10.94791919 4.86618493 8 6 C8 5.01 8 4.02 8 3 C5.03 2.67 2.06 2.34 -1 2 C-0.67 1.34 -0.34 0.68 0 0 Z " fill="#104FD6" transform="translate(145,176)"/>
<path d="M0 0 C-0.969375 0.28875 -1.93875 0.5775 -2.9375 0.875 C-6.10664203 1.64214682 -6.10664203 1.64214682 -7 4 C-8.32 3.67 -9.64 3.34 -11 3 C-11.33 3.99 -11.66 4.98 -12 6 C-12.66 5.34 -13.32 4.68 -14 4 C-13.67 3.01 -13.34 2.02 -13 1 C-11.07421875 0.234375 -11.07421875 0.234375 -8.6875 -0.25 C-7.90761719 -0.42015625 -7.12773437 -0.5903125 -6.32421875 -0.765625 C-3.92348133 -1.00771617 -2.28190412 -0.7310448 0 0 Z " fill="#0B4BD8" transform="translate(197,177)"/>
<path d="M0 0 C1.65 0 3.3 0 5 0 C5 0.66 5 1.32 5 2 C4.34 2 3.68 2 3 2 C3.185625 2.61875 3.37125 3.2375 3.5625 3.875 C4 6 4 6 3 8 C2.34 8 1.68 8 1 8 C0.67 8.99 0.34 9.98 0 11 C-0.33 9.35 -0.66 7.7 -1 6 C-0.34 6 0.32 6 1 6 C0.67 4.02 0.34 2.04 0 0 Z " fill="#054CE7" transform="translate(335,176)"/>
<path d="M0 0 C0.99 0 1.98 0 3 0 C3.08333357 4.8333472 2.95261487 9.23692563 2 14 C1.01 13.34 0.02 12.68 -1 12 C-0.9278125 11.30132812 -0.855625 10.60265625 -0.78125 9.8828125 C-0.6884375 8.97273437 -0.595625 8.06265625 -0.5 7.125 C-0.4071875 6.22007812 -0.314375 5.31515625 -0.21875 4.3828125 C0.03047295 2.06686789 0.03047295 2.06686789 0 0 Z " fill="#0E67E3" transform="translate(209,185)"/>
<path d="M0 0 C1.875 0.25 1.875 0.25 4 1 C5.25 3.0625 5.25 3.0625 6 5 C7.32 4.34 8.64 3.68 10 3 C10 4.32 10 5.64 10 7 C5 6 5 6 0 5 C0 3.35 0 1.7 0 0 Z " fill="#105BC6" transform="translate(321,240)"/>
<path d="M0 0 C-1.98 0.99 -1.98 0.99 -4 2 C-3.67 2.66 -3.34 3.32 -3 4 C-6.3 4.33 -9.6 4.66 -13 5 C-9.24729562 1.24729562 -5.35036719 -1.78345573 0 0 Z " fill="#165BC4" transform="translate(295,240)"/>
<path d="M0 0 C0 2 0 4 0 6 C-6.625 6.125 -6.625 6.125 -10 5 C-9.67 3.68 -9.34 2.36 -9 1 C-8.34 1.66 -7.68 2.32 -7 3 C-3.70285207 2.67028521 -2.3773161 2.3773161 0 0 Z " fill="#1758C3" transform="translate(261,217)"/>
<path d="M0 0 C-1.6875 2 -1.6875 2 -4 4 C-6.5 4.125 -6.5 4.125 -9 4 C-11.25132517 4.91568906 -11.25132517 4.91568906 -13 6 C-5.46629213 -1.95224719 -5.46629213 -1.95224719 0 0 Z " fill="#1559C8" transform="translate(93,178)"/>
<path d="M0 0 C1.32 0.33 2.64 0.66 4 1 C4 1.99 4 2.98 4 4 C3.443125 4.12375 2.88625 4.2475 2.3125 4.375 C-0.22114364 5.05976855 -2.57921032 5.99133763 -5 7 C-5 6.34 -5 5.68 -5 5 C-4.34 5 -3.68 5 -3 5 C-3 4.34 -3 3.68 -3 3 C-2.34 3 -1.68 3 -1 3 C-0.67 2.01 -0.34 1.02 0 0 Z " fill="#115BD3" transform="translate(385,302)"/>
<path d="M0 0 C0.78375 0.04125 1.5675 0.0825 2.375 0.125 C2.045 1.115 1.715 2.105 1.375 3.125 C1.30834624 4.51939664 1.28961801 5.91669875 1.3125 7.3125 C1.333125 8.570625 1.35375 9.82875 1.375 11.125 C1.045 11.125 0.715 11.125 0.375 11.125 C0.2925 10.196875 0.21 9.26875 0.125 8.3125 C-0.32757552 5.03990121 -0.32757552 5.03990121 -2.6875 3.25 C-3.326875 2.87875 -3.96625 2.5075 -4.625 2.125 C-2.625 0.125 -2.625 0.125 0 0 Z " fill="#0F61C8" transform="translate(333.625,247.875)"/>
<path d="M0 0 C0.33 0 0.66 0 1 0 C1.06058594 0.74765625 1.12117188 1.4953125 1.18359375 2.265625 C1.26738281 3.25046875 1.35117188 4.2353125 1.4375 5.25 C1.51871094 6.22453125 1.59992188 7.1990625 1.68359375 8.203125 C1.95074584 10.56461753 2.35371968 12.71901065 3 15 C1.68 14.67 0.36 14.34 -1 14 C-0.67 9.38 -0.34 4.76 0 0 Z " fill="#1269EC" transform="translate(116,202)"/>
<path d="M0 0 C1.67542976 0.28604898 3.34385343 0.61781233 5 1 C5.33 2.32 5.66 3.64 6 5 C4.68 4.34 3.36 3.68 2 3 C1.67 3.99 1.34 4.98 1 6 C-0.32 5.67 -1.64 5.34 -3 5 C-1.125 1.125 -1.125 1.125 0 0 Z " fill="#0959CE" transform="translate(318,211)"/>
<path d="M0 0 C2.97 0.495 2.97 0.495 6 1 C6 1.66 6 2.32 6 3 C6.66 3 7.32 3 8 3 C8 3.99 8 4.98 8 6 C8.66 6 9.32 6 10 6 C9.67 7.32 9.34 8.64 9 10 C8.7525 9.21625 8.505 8.4325 8.25 7.625 C6.79859234 4.57704392 6.00449293 4.27463336 3 3 C1.25 1.375 1.25 1.375 0 0 Z " fill="#1258C3" transform="translate(329,208)"/>
<path d="M0 0 C2.31 0 4.62 0 7 0 C7.33 1.65 7.66 3.3 8 5 C5.525 4.01 5.525 4.01 3 3 C1.68 4.32 0.36 5.64 -1 7 C-0.67 4.69 -0.34 2.38 0 0 Z " fill="#0C5CB7" transform="translate(92,186)"/>
<path d="M0 0 C1.32 0.33 2.64 0.66 4 1 C0.00386479 4.71069698 -2.37082652 6.59791618 -8 7 C-7.67 6.34 -7.34 5.68 -7 5 C-5.68 5 -4.36 5 -3 5 C-3.33 4.01 -3.66 3.02 -4 2 C-3.01 2 -2.02 2 -1 2 C-0.67 1.34 -0.34 0.68 0 0 Z " fill="#1960C2" transform="translate(348,304)"/>
<path d="M0 0 C0.66 0 1.32 0 2 0 C2.66 0.99 3.32 1.98 4 3 C7.08365871 3.2502157 7.08365871 3.2502157 10 3 C10.33 3.99 10.66 4.98 11 6 C8 7 8 7 5.5 6.375 C2.48121179 4.71466648 1.52052744 3.04105488 0 0 Z " fill="#145FC5" transform="translate(100,225)"/>
<path d="M0 0 C2.97 0.495 2.97 0.495 6 1 C4.69704858 3.60590285 3.7008725 3.96190955 1 5 C-1.796875 5.1953125 -1.796875 5.1953125 -4.75 5.125 C-5.73484375 5.10695312 -6.7196875 5.08890625 -7.734375 5.0703125 C-8.85585937 5.03550781 -8.85585937 5.03550781 -10 5 C-10 4.67 -10 4.34 -10 4 C-6.7 4 -3.4 4 0 4 C0 2.68 0 1.36 0 0 Z " fill="#1C63BA" transform="translate(146,226)"/>
<path d="M0 0 C1.32 1.32 2.64 2.64 4 4 C-0.455 4.495 -0.455 4.495 -5 5 C-4.67 4.01 -4.34 3.02 -4 2 C-3.01 2 -2.02 2 -1 2 C-0.67 1.34 -0.34 0.68 0 0 Z M-7 5 C-5 6 -5 6 -5 6 Z M-9 6 C-8.34 6 -7.68 6 -7 6 C-7.33 6.66 -7.66 7.32 -8 8 C-8.33 7.34 -8.66 6.68 -9 6 Z " fill="#075BCF" transform="translate(324,216)"/>
<path d="M0 0 C0.99 0 1.98 0 3 0 C3 0.66 3 1.32 3 2 C3.5775 2.28875 4.155 2.5775 4.75 2.875 C6.83333333 3.91666667 8.91666667 4.95833333 11 6 C10.01 7.485 10.01 7.485 9 9 C8.51789063 8.57847656 8.03578125 8.15695313 7.5390625 7.72265625 C6.90742188 7.17480469 6.27578125 6.62695312 5.625 6.0625 C4.99851562 5.51722656 4.37203125 4.97195312 3.7265625 4.41015625 C2.04367666 2.93041376 2.04367666 2.93041376 0 2 C0 1.34 0 0.68 0 0 Z " fill="#175DC1" transform="translate(308,247)"/>
<path d="M0 0 C1.65 0 3.3 0 5 0 C2.46658737 3.09639322 -0.12990885 4.13120403 -4 5 C-6.375 4.125 -6.375 4.125 -8 3 C-5.10765685 2.17361624 -3.11257569 2 0 2 C0 1.34 0 0.68 0 0 Z " fill="#1562C9" transform="translate(196,225)"/>
<path d="M0 0 C5.75 1.875 5.75 1.875 8 3 C8 3.66 8 4.32 8 5 C7.0925 4.649375 6.185 4.29875 5.25 3.9375 C2.12241564 3.03531221 0.94791919 2.86618493 -2 4 C-2.33 3.34 -2.66 2.68 -3 2 C-2.01 2 -1.02 2 0 2 C0 1.34 0 0.68 0 0 Z " fill="#1B5CC7" transform="translate(236,223)"/>
<path d="M0 0 C0.33 1.65 0.66 3.3 1 5 C-0.32 5.33 -1.64 5.66 -3 6 C-3 5.34 -3 4.68 -3 4 C-4.32 3.67 -5.64 3.34 -7 3 C-2.25 0 -2.25 0 0 0 Z " fill="#105BCD" transform="translate(184,179)"/>
<path d="M0 0 C-0.639375 0.103125 -1.27875 0.20625 -1.9375 0.3125 C-2.618125 0.539375 -3.29875 0.76625 -4 1 C-4.33 1.99 -4.66 2.98 -5 4 C-5.763125 3.835 -6.52625 3.67 -7.3125 3.5 C-10.03596236 2.90854604 -10.03596236 2.90854604 -13 3 C-8.30609874 -0.77801809 -5.8692391 -1.40861738 0 0 Z " fill="#0E56CA" transform="translate(316,179)"/>
<path d="M0 0 C0.66 0 1.32 0 2 0 C2.66 1.65 3.32 3.3 4 5 C2.68 6.32 1.36 7.64 0 9 C0 6.03 0 3.06 0 0 Z " fill="#1859C0" transform="translate(355,293)"/>
<path d="M0 0 C0.66 1.32 1.32 2.64 2 4 C-3.625 7 -3.625 7 -7 7 C-4.69 4.69 -2.38 2.38 0 0 Z " fill="#165FC4" transform="translate(317,290)"/>
<path d="M0 0 C1.32 0 2.64 0 4 0 C5.10844919 3.32534757 4.84454356 5.62182575 4 9 C1.49701566 6.06171403 0.53069061 3.82097239 0 0 Z " fill="#1B57C8" transform="translate(264,290)"/>
<path d="M0 0 C0 0.66 0 1.32 0 2 C-3.3171411 3.4216319 -6.44219804 4.39009109 -10 5 C-10 4.34 -10 3.68 -10 3 C-3.375 0 -3.375 0 0 0 Z " fill="#155AC6" transform="translate(342,239)"/>
<path d="M0 0 C1.65 0 3.3 0 5 0 C5.99 1.98 6.98 3.96 8 6 C4.08597051 4.73058503 2.20927127 3.48832306 0 0 Z " fill="#155DC4" transform="translate(271,303)"/>
<path d="M0 0 C0.6875 1.8125 0.6875 1.8125 1 4 C-0.3125 5.5625 -0.3125 5.5625 -2 7 C-2.66 7.99 -3.32 8.98 -4 10 C-3.51171875 3.9453125 -3.51171875 3.9453125 -3 2 C-2.01 1.34 -1.02 0.68 0 0 Z " fill="#1868DD" transform="translate(121,190)"/>
<path d="M0 0 C1.32 0.33 2.64 0.66 4 1 C3.00102287 3.99693138 2.34869747 5.02709413 0 7 C-0.66 7 -1.32 7 -2 7 C-1.42415568 4.61435923 -0.77772405 2.33317216 0 0 Z " fill="#0259E7" transform="translate(186,180)"/>
<path d="M0 0 C0.825 0.309375 1.65 0.61875 2.5 0.9375 C6.39126155 2.11877583 9.96166953 2.58224168 14 3 C14 3.33 14 3.66 14 4 C4.82713348 4.63019694 4.82713348 4.63019694 1.375 2 C0.92125 1.34 0.4675 0.68 0 0 Z " fill="#1A5ABD" transform="translate(359,308)"/>
<path d="M0 0 C0.99 0 1.98 0 3 0 C3.33 0.66 3.66 1.32 4 2 C5.89533342 2.46523063 5.89533342 2.46523063 8.0625 2.625 C9.361875 2.74875 10.66125 2.8725 12 3 C12 3.33 12 3.66 12 4 C8.7 4 5.4 4 2 4 C1.34 2.68 0.68 1.36 0 0 Z " fill="#165EBE" transform="translate(328,308)"/>
<path d="M0 0 C0.99 0 1.98 0 3 0 C3.33 1.32 3.66 2.64 4 4 C3.01 4.33 2.02 4.66 1 5 C0.67 5.99 0.34 6.98 0 8 C0 5.36 0 2.72 0 0 Z " fill="#0F5DC4" transform="translate(281,214)"/>
<path d="M0 0 C2.475 0.495 2.475 0.495 5 1 C4.67 2.65 4.34 4.3 4 6 C3.01 5.67 2.02 5.34 1 5 C0.67 3.35 0.34 1.7 0 0 Z " fill="#1143E4" transform="translate(315,196)"/>
<path d="M0 0 C0.99 0 1.98 0 3 0 C3.33 1.32 3.66 2.64 4 4 C3.34 4 2.68 4 2 4 C2 4.66 2 5.32 2 6 C1.34 6 0.68 6 0 6 C-1.125 2.25 -1.125 2.25 0 0 Z " fill="#0B5CD0" transform="translate(88,190)"/>
<path d="M0 0 C2.475 0.495 2.475 0.495 5 1 C4.67 2.98 4.34 4.96 4 7 C3.67 7 3.34 7 3 7 C3 5.35 3 3.7 3 2 C2.01 2.33 1.02 2.66 0 3 C0 2.01 0 1.02 0 0 Z " fill="#1A58BD" transform="translate(404,298)"/>
<path d="M0 0 C0.99 0.33 1.98 0.66 3 1 C3.625 3.375 3.625 3.375 4 6 C3.34 6.66 2.68 7.32 2 8 C2 6.35 2 4.7 2 3 C0.68 2.67 -0.64 2.34 -2 2 C-1.34 1.34 -0.68 0.68 0 0 Z " fill="#073BE2" transform="translate(441,269)"/>
<path d="M0 0 C2.475 0.99 2.475 0.99 5 2 C5 3.65 5 5.3 5 7 C4.34 7 3.68 7 3 7 C3 6.34 3 5.68 3 5 C2.34 4.67 1.68 4.34 1 4 C1.33 3.67 1.66 3.34 2 3 C1.01 2.34 0.02 1.68 -1 1 C-0.67 0.67 -0.34 0.34 0 0 Z " fill="#0F5CCF" transform="translate(315,239)"/>
<path d="M0 0 C0.33 0.66 0.66 1.32 1 2 C3.01669827 3.13350534 3.01669827 3.13350534 5 4 C4.67 4.99 4.34 5.98 4 7 C2.68 6.34 1.36 5.68 0 5 C0 3.35 0 1.7 0 0 Z " fill="#1259C2" transform="translate(280,223)"/>
<path d="M0 0 C3.93673644 1.31224548 6.22719294 2.91910327 9 6 C2.35384615 4.52307692 2.35384615 4.52307692 0.5625 1.875 C0.376875 1.25625 0.19125 0.6375 0 0 Z " fill="#105FBB" transform="translate(317,224)"/>
<path d="M0 0 C2.79872437 2.52788007 4.45773019 4.20411134 5 8 C4.34 8 3.68 8 3 8 C0.25624329 5.04518508 0 4.22528092 0 0 Z " fill="#115BC1" transform="translate(163,183)"/>
<path d="M0 0 C0.99 0.33 1.98 0.66 3 1 C3 2.32 3 3.64 3 5 C1.68 5.33 0.36 5.66 -1 6 C-1.625 4.125 -1.625 4.125 -2 2 C-1.34 1.34 -0.68 0.68 0 0 Z " fill="#0649DC" transform="translate(79,183)"/>
<path d="M0 0 C2.475 0.495 2.475 0.495 5 1 C5 2.32 5 3.64 5 5 C4.67 4.01 4.34 3.02 4 2 C2.02 2.99 2.02 2.99 0 4 C0 2.68 0 1.36 0 0 Z " fill="#095DE6" transform="translate(324,246)"/>
<path d="M0 0 C-1 3 -1 3 -2.875 4.1875 C-5 5 -5 5 -8 5 C-8 4.34 -8 3.68 -8 3 C-6.68 3 -5.36 3 -4 3 C-4 2.34 -4 1.68 -4 1 C-2 0 -2 0 0 0 Z " fill="#1559C6" transform="translate(271,224)"/>
<path d="M0 0 C0.93065133 2.60582371 1.14917407 3.64198224 0.0625 6.25 C-0.4634375 7.11625 -0.4634375 7.11625 -1 8 C-1.66 8 -2.32 8 -3 8 C-2.25 2.25 -2.25 2.25 0 0 Z " fill="#115ACD" transform="translate(87,196)"/>
<path d="M0 0 C0.99 0 1.98 0 3 0 C3.185625 1.1446875 3.185625 1.1446875 3.375 2.3125 C3.88102792 5.20267136 3.88102792 5.20267136 6 8 C2.83884224 6.63016497 2.0072908 6.0109362 0 3 C0 2.01 0 1.02 0 0 Z " fill="#1B5AC7" transform="translate(333,187)"/>
<path d="M0 0 C1.98 0 3.96 0 6 0 C6 0.99 6 1.98 6 3 C4.35 3.33 2.7 3.66 1 4 C1.33 3.01 1.66 2.02 2 1 C1.34 0.67 0.68 0.34 0 0 Z " fill="#0A59CD" transform="translate(136,186)"/>
<path d="" fill="#000000" transform="translate(0,0)"/>
<path d="" fill="#0000FF" transform="translate(0,0)"/>
</svg>
